<svg xmlns="http://www.w3.org/2000/svg" viewBox="0 0 198 74" width="198" height="74">
  <defs>
    <style>
      .cls-2,.cls-3{fill:#fff}.cls-2{fill-rule:evenodd}
    </style>
  </defs>
  <title>Technische Universität Braunschweig Logo</title>
  <path fill="#be1e3c" d="M-1 0h198v74H-1z"/>
  <path class="cls-2" d="M41 33.3a11.3 11.3 0 0 0 1.3-.8 2.8 2.8 0 0 0 .8-1.2 2.6 2.6 0 0 1-.5-2s-.2-.2-.4 0a11.7 11.7 0 0 1-1.4.5s-.2 1 0 1.1.8.2.7.5a1.7 1.7 0 0 1-.6.8 5.7 5.7 0 0 1-1 .6 3.9 3.9 0 0 0-1.5-.1.4.4 0 0 0-.3.3.7.7 0 0 0-.2 0 .5.5 0 0 0-.2.1.5.5 0 0 0 .2.1.5.5 0 0 0 .2 0 .4.4 0 0 0 .3.3 2.4 2.4 0 0 0 1 0l.3.1-.2.3a2.7 2.7 0 0 0-.7.5.6.6 0 0 0-.1.5.7.7 0 0 0-.2.3.5.5 0 0 0 0 .2.5.5 0 0 0 .2 0 .4.4 0 0 0 .2-.1.5.5 0 0 0 .6-.3 3.6 3.6 0 0 0 .4-.7l.1-.1c.1 0 .2 0 .1.3a2.6 2.6 0 0 0 0 .7c.1.5.5.5.5.5a.5.5 0 0 0 0 .2.5.5 0 0 0 .3.1.6.6 0 0 0 0-.3.6.6 0 0 0 0-.1.4.4 0 0 0 .2-.4 2 2 0 0 0-.4-.8V34l.3.1a1.4 1.4 0 0 0 .5.5.4.4 0 0 0 .5 0 1 1 0 0 0 .1.1.6.6 0 0 0 .3 0 1 1 0 0 0 0-.2.5.5 0 0 0-.2-.2.6.6 0 0 0-.1-.4 4.4 4.4 0 0 0-1.1-.7z"/>
  <path class="cls-2" d="M47.3 34.7a.6.6 0 0 1-.2 0h-.2a.4.4 0 0 1-.4 0 1.4 1.4 0 0 1-.6-.6h-.3v.2a2 2 0 0 1 .4.8.4.4 0 0 1-.1.4.6.6 0 0 1 0 .5.5.5 0 0 1-.3-.2.5.5 0 0 1 0-.2s-.4 0-.5-.5a2.6 2.6 0 0 1 0-.7v-.3s-.2 0-.3.2a3.7 3.7 0 0 1-.3.7.5.5 0 0 1-.6.2.4.4 0 0 1-.2.2.5.5 0 0 1-.2 0 .5.5 0 0 1 0-.3.7.7 0 0 1 .1-.2.6.6 0 0 1 .2-.6 2.7 2.7 0 0 1 .7-.5s.2-.1.1-.2l-.2-.1a2.4 2.4 0 0 1-1 0 .4.4 0 0 1-.4-.3.5.5 0 0 1-.2 0 .5.5 0 0 1-.1-.2.5.5 0 0 1 .1 0 .7.7 0 0 1 .2 0s0-.4.4-.4a3.5 3.5 0 0 1 1.5.2 4.6 4.6 0 0 0 .3-2c-.1-.6-1-.5-1.2-1s-.3-1.8-.8-1.9c-.8-.1-.1.5-3 1.2-.8.2-1.5 0-2 .6-.1.1-.5 1-1 1.6a4.8 4.8 0 0 1-1.4 1.4 2.3 2.3 0 0 1 .8.5.6.6 0 0 1 .1.4.5.5 0 0 1 .2.2 1 1 0 0 1 0 .2.6.6 0 0 1-.2 0h-.1a.4.4 0 0 1-.5 0 1.4 1.4 0 0 1-.5-.5c-.1-.2-.2-.2-.3-.1v.2a2 2 0 0 1 .4.8.4.4 0 0 1-.2.5.7.7 0 0 1 0 .1.6.6 0 0 1 0 .3.5.5 0 0 1-.3-.1.5.5 0 0 1 0-.2s-.4 0-.5-.6a2.7 2.7 0 0 1 0-.6v-.3l-.2.1a3.7 3.7 0 0 1-.4.7.5.5 0 0 1-.6.3.4.4 0 0 1-.2.1.5.5 0 0 1-.2 0 .5.5 0 0 1 0-.3.8.8 0 0 1 .2-.2.6.6 0 0 1 .1-.5 2.8 2.8 0 0 1 .7-.6c.1 0 .2 0 .2-.2s-.2-.1-.3 0a2.4 2.4 0 0 1-1 0 .4.4 0 0 1-.3-.4.5.5 0 0 1-.2 0 .5.5 0 0 1-.2-.1.5.5 0 0 1 .2-.2.7.7 0 0 1 .2 0 .5.5 0 0 1 .4-.3 3.6 3.6 0 0 1 1.6.2A7 7 0 0 0 36 31a3.4 3.4 0 0 0 .5-1.2c.1-.5 0-.6-.2-.7a4.9 4.9 0 0 1-1-.9 3 3 0 0 1-.5-1.7 9.7 9.7 0 0 1-1.1-1.2 2.3 2.3 0 0 1-.2 1 .6.6 0 0 1-.3.3.5.5 0 0 1-.1.1 1 1 0 0 1-.2.2.6.6 0 0 1-.1-.2 1 1 0 0 1 0-.2.4.4 0 0 1-.2-.4 1.4 1.4 0 0 1 .3-.8V25l-.3.1a2 2 0 0 1-.6.7.4.4 0 0 1-.4 0 .6.6 0 0 1-.2 0 .6.6 0 0 1-.3.1.5.5 0 0 1 .1-.2.5.5 0 0 1 .1-.2s-.1-.3.4-.6a2.7 2.7 0 0 1 .6-.3c.2 0 .2 0 .2-.2s0 0-.2 0a3.8 3.8 0 0 1-.8 0 .5.5 0 0 1-.4-.5.4.4 0 0 1-.2-.1.5.5 0 0 1-.1-.2.5.5 0 0 1 .2-.1.7.7 0 0 1 .2 0 .6.6 0 0 1 .6-.1 2.7 2.7 0 0 1 .8.4c0 .1.2.2.2 0v-.2a2.4 2.4 0 0 1-.4-.9.4.4 0 0 1 .2-.4.6.6 0 0 1 0-.2.5.5 0 0 1 0-.2.5.5 0 0 1 .2 0 .7.7 0 0 1 .1.2.5.5 0 0 1 .5.3 1.9 1.9 0 0 1 .3 1.2 3.4 3.4 0 0 0 .7 1 3.2 3.2 0 0 0 .8.5 5.8 5.8 0 0 1 .9-1l1-.9a3 3 0 0 0 .5-.7 2.5 2.5 0 0 0-1.3 0c0-.1-.2-.4-.1-.6a2.9 2.9 0 0 1 1.6 0c.1-.2.4-.7 0-.9a2 2 0 0 0-1.8 0 .6.6 0 0 1-.2-.7c-.4-.4-.2-.5 0-.6a2.7 2.7 0 0 1 1-.1 1 1 0 0 1 .2-.4c.1-.4 1.2-.3 1.6-.3a4 4 0 0 0 .8-.1c.4 0 .4.3.3.4l-.2.3a1.3 1.3 0 0 1 .8.7v.8a2.6 2.6 0 0 0 .4.6 2.5 2.5 0 0 1 .3 1c0 .4-.3.4-.4.3s-.3-.3-.5-.3-.3.2-.3.3a4.5 4.5 0 0 1 .4 1 3 3 0 0 1 0 1.1c0 .4-.4.3-.4.1s-.2-.3-.4-.4-.5.3-.5.5a1 1 0 0 0 .1.8c.7 1 3.8-1 5.2.1a2.5 2.5 0 0 0 0-1c-.2-.7-1.4-1-2-1.9a1.6 1.6 0 0 1-.3-.6 4.8 4.8 0 0 1 .8-2.8 2 2 0 0 1 0-1.6 4 4 0 0 1 .5-1c.2-.2.7-.2.7 0 0 0-.6.7-.4 1s1.3-.6.5 1c-.3.7-.6.9-1 .8a4 4 0 0 0-.5 2.4 1.4 1.4 0 0 0 .5.8c.6.5 1.6.9 1.8 1.8a4.1 4.1 0 0 1-.2 1.8 11.4 11.4 0 0 1 .4 1.7c0 .2.2.5.4.5s.4-.3.5-.4.4-.2.4.2a6.6 6.6 0 0 1 .2 1 9 9 0 0 1-.8 3.4 3.4 3.4 0 0 1 1 .5c.4.3.2.5.2.7a.5.5 0 0 1 .2.1 1 1 0 0 1 .1.3zm-9.7-15s.5.6.8.4 0-.5 0-.6-.6-.1-.8.1z"/>
  <path class="cls-2" d="M34.5 21.6a1.9 1.9 0 0 0 1.8-.3c-1.2.2-1.7-.2-1.4-.8-.9.1-.8 1-.4 1zM41 52.3a11.3 11.3 0 0 0 1.3-.8 2.8 2.8 0 0 0 .8-1.2 2.6 2.6 0 0 1-.5-2s-.2-.2-.4 0a11.8 11.8 0 0 1-1.4.5s-.2 1 0 1.1.8.2.7.5a1.7 1.7 0 0 1-.6.8 5.8 5.8 0 0 1-1 .6 3.9 3.9 0 0 0-1.5-.1.4.4 0 0 0-.3.3.7.7 0 0 0-.2 0 .5.5 0 0 0-.2.1.5.5 0 0 0 .2.2.5.5 0 0 0 .2 0 .4.4 0 0 0 .3.2 2.4 2.4 0 0 0 1 0l.3.1-.2.3a2.7 2.7 0 0 0-.7.5.6.6 0 0 0-.1.5.7.7 0 0 0-.2.2.5.5 0 0 0 0 .3.5.5 0 0 0 .2 0 .4.4 0 0 0 .2-.1.5.5 0 0 0 .6-.3 3.7 3.7 0 0 0 .4-.7l.1-.1c.1 0 .2 0 .1.3a2.6 2.6 0 0 0 0 .7c.1.5.5.5.5.5a.5.5 0 0 0 0 .2.5.5 0 0 0 .3.1.6.6 0 0 0 0-.3.6.6 0 0 0 0-.1.4.4 0 0 0 .2-.4 2 2 0 0 0-.4-.8V53l.3.1a1.4 1.4 0 0 0 .5.5.4.4 0 0 0 .5 0 1 1 0 0 0 .1.1.6.6 0 0 0 .3 0 1 1 0 0 0 0-.2.5.5 0 0 0-.2-.2.6.6 0 0 0-.1-.4 4.4 4.4 0 0 0-1.1-.7z"/>
  <path class="cls-2" d="M47.3 53.5a.5.5 0 0 0-.2-.2s.2-.3-.2-.6a3.4 3.4 0 0 0-1-.5 9 9 0 0 0 .8-3.5 6.6 6.6 0 0 0-.2-1c0-.3-.3-.3-.4-.1s-.2.3-.5.4-.4-.3-.4-.5l-.3-1.3a2.5 2.5 0 0 0 1.1-.6 1.4 1.4 0 0 0 .2-1.8c-.2-.4-.5-.6-2-1.2a3.2 3.2 0 0 1-1.3-.8 2.2 2.2 0 0 1-.3-.4.8.8 0 0 1 .2-.9l.4-.2a3.2 3.2 0 0 0 2.1 0 8 8 0 0 0 1.4-.7c.4-.2.3-.7 0-.7 0 0-1.3.6-1.6.4s.3-1-1.2-.3c-.6.2-1 .5-1 .9a1.5 1.5 0 0 0-1 1.3 1.6 1.6 0 0 0 .3.7 4.2 4.2 0 0 0 2.2 1.3c.8.3 1.2.5 1.3 1 .2.8-.2 1.2-1 1.3a2 2 0 0 0-.3-.4c-1.2-1.2-4.5.8-5.2-.2a1 1 0 0 1-.2-.7c0-.3.3-.5.5-.5s.3.3.4.4.4.2.5-.1a3 3 0 0 0 0-1.1 4.5 4.5 0 0 0-.5-1l.3-.4.5.3s.5.1.5-.2a2.5 2.5 0 0 0-.3-1 2.6 2.6 0 0 1-.4-.6V39a1.3 1.3 0 0 0-.9-.7l.2-.3c.1 0 .1-.4-.2-.4a4 4 0 0 1-.8.1c-.4 0-1.5 0-1.7.3a1 1 0 0 0 0 .4 2.7 2.7 0 0 0-1.2.2c-.1 0-.3.2 0 .5a.6.6 0 0 0 .2.8 2 2 0 0 1 2 0c.2.2 0 .6-.1.8a2.9 2.9 0 0 0-1.7 0l.1.6a2.5 2.5 0 0 1 1.4 0 3 3 0 0 1-.6.8l-1 .8a5.2 5.2 0 0 0-1 1.2 4.4 4.4 0 0 1-1.2-.5 3.4 3.4 0 0 1-1-.8 1.9 1.9 0 0 0-.4-1.2.5.5 0 0 0-.5-.1.7.7 0 0 0-.2-.2.5.5 0 0 0-.2 0 .5.5 0 0 0 0 .2.5.5 0 0 0 .1.1.4.4 0 0 0 0 .5 2.4 2.4 0 0 0 .5.8s.1.1 0 .2h-.2a2.7 2.7 0 0 0-.8-.3.6.6 0 0 0-.6.2.7.7 0 0 0-.2 0 .5.5 0 0 0-.2.2.5.5 0 0 0 0 .1.4.4 0 0 0 .3 0 .5.5 0 0 0 .5.4 3.8 3.8 0 0 0 .8 0h.3s0 .2-.2.3a2.7 2.7 0 0 0-.6.3c-.4.4-.2.7-.2.7a.5.5 0 0 0-.2.2.5.5 0 0 0 0 .2.6.6 0 0 0 .4-.2.4.4 0 0 0 .5-.1 2 2 0 0 0 .4-.8h.3s.1 0 0 .2a1.4 1.4 0 0 0-.1.8.4.4 0 0 0 .3.3 1 1 0 0 0 0 .2.6.6 0 0 0 0 .2 1 1 0 0 0 .2-.2.5.5 0 0 0 .1-.2.6.6 0 0 0 .3-.3 2.3 2.3 0 0 0 0-1 7.3 7.3 0 0 0 1.6 1.2 3 3 0 0 0 .6 1.5 5 5 0 0 0 1 .8c.1.2.3.2.2.7a3.4 3.4 0 0 1-.6 1.3 7 7 0 0 1-1.4 1.2 3.6 3.6 0 0 0-1.6-.2.5.5 0 0 0-.4.3.7.7 0 0 0-.2 0 .5.5 0 0 0-.2.1.5.5 0 0 0 .2.2.5.5 0 0 0 .2 0 .4.4 0 0 0 .3.3 2.4 2.4 0 0 0 1 0h.3l-.1.3a2.8 2.8 0 0 0-.8.5.6.6 0 0 0 0 .6.8.8 0 0 0-.2.2.5.5 0 0 0 0 .3.5.5 0 0 0 .2 0 .4.4 0 0 0 .2-.2.5.5 0 0 0 .6-.2 3.7 3.7 0 0 0 .3-.7c0-.2.1-.2.2-.2s.1 0 0 .3a2.6 2.6 0 0 0 0 .7c.2.6.5.5.5.5a.5.5 0 0 0 .1.2.5.5 0 0 0 .2.2.6.6 0 0 0 0-.5.4.4 0 0 0 .2-.4 2 2 0 0 0-.4-.8v-.3l.3.1a1.4 1.4 0 0 0 .5.5.4.4 0 0 0 .5 0 1 1 0 0 0 .2.1.6.6 0 0 0 .2 0 1 1 0 0 0 0-.2.4.4 0 0 0-.2-.2.6.6 0 0 0-.1-.4 2.4 2.4 0 0 0-.8-.6 4.8 4.8 0 0 0 1.4-1.3c.5-.6.8-1.5 1-1.7.5-.5 1.2-.3 2-.5 2.8-.7 2.2-1.4 3-1.2.5 0 .4 1.2.8 1.9s1 .4 1.1 1a4.6 4.6 0 0 1-.2 2 3.5 3.5 0 0 0-1.6-.2c-.3 0-.3.3-.3.3a.7.7 0 0 0-.2 0 .5.5 0 0 0-.2.1.5.5 0 0 0 .2.2.5.5 0 0 0 .2 0 .4.4 0 0 0 .3.3 2.4 2.4 0 0 0 1 0h.3s0 .2-.2.3a2.7 2.7 0 0 0-.7.5.6.6 0 0 0-.1.6.7.7 0 0 0-.1.2.5.5 0 0 0 0 .2.5.5 0 0 0 .2 0 .4.4 0 0 0 .2-.1.5.5 0 0 0 .5-.2 3.7 3.7 0 0 0 .4-.7c0-.2 0-.2.2-.2s.1 0 0 .3a2.6 2.6 0 0 0 0 .7c.2.6.5.5.5.5a.5.5 0 0 0 0 .2.5.5 0 0 0 .3.2.6.6 0 0 0 0-.3.6.6 0 0 0 0-.2.4.4 0 0 0 .2-.4 2 2 0 0 0-.4-.8V53l.3.1a1.4 1.4 0 0 0 .6.5.4.4 0 0 0 .4 0 1 1 0 0 0 .2.1.6.6 0 0 0 .2 0 1 1 0 0 0-.2-.2zm-9-14.4c-.2.2-.7-.5-.7-.5.2-.2.5-.4.7-.1s.3.4 0 .6z"/>
  <path class="cls-2" d="M34.5 40.6a2 2 0 0 0 1.8-.3c-1.2.2-1.7-.2-1.4-.8-.9.1-.8 1-.4 1.1z"/>
  <path class="cls-3" d="M61.2 25.1c0-.4-.3-.6-1.6-.3-1.6.2-2.4-.4-2-1a.9.9 0 1 0 .1 1.6c1.3 0 2-.5 3.5-.3zM62.9 40l-.9-.2a7.3 7.3 0 0 1-3.1 2c-1.7.6-2.4 1.1-2.8 1.8a3.5 3.5 0 0 0-.5 1.4 5.6 5.6 0 0 0 0 1.4.3.3 0 0 0 .7 0c0-.2.2-.4.5-.5s.4.3.4.3a5.8 5.8 0 0 1-1 2 9.9 9.9 0 0 1-1.7 1.5 6.3 6.3 0 0 0-1.4-.5c-.3 0-.7 0-.8.2a.8.8 0 0 0-.5.2 1 1 0 0 0 .4.3c0 .3.3.4.7.5a5 5 0 0 0 .8 0 .2.2 0 0 1 .3.1.2.2 0 0 1-.2.3c-1 .1-1.3.6-1.3 1a.8.8 0 0 0-.2.7 1 1 0 0 0 .6-.2c.6 0 1-.6 1.2-.9 0-.2.2-.2.3-.2s.1.2 0 .4a2.5 2.5 0 0 0-.1.8.8.8 0 0 0 .4.7l.3.5a1 1 0 0 0 .1-.5.8.8 0 0 0 .3-.8 3 3 0 0 0-.3-.7v-.3s.3 0 .4.2a2.3 2.3 0 0 0 .3.5c.2.2.6.4.8.3a.8.8 0 0 0 .5 0 .8.8 0 0 0-.2-.4.7.7 0 0 0-.2-.8 5.5 5.5 0 0 0-1-.7 6.4 6.4 0 0 0 2.1-1.5 7.4 7.4 0 0 0 .7-1.2c.4.1.4.4.5.7s.3.2.4-.1a3.6 3.6 0 0 0 .2-1 3.2 3.2 0 0 0-.3-1.5c0-.1.1-.3.3-.2l.4.4a.4.4 0 0 0 .7-.2 4.3 4.3 0 0 0 0-1 2 2 0 0 0-.6-.9c.1-.7.6-.8 1.7-1.6a7.6 7.6 0 0 0 1.3-1.2 1.1 1.1 0 0 0 .2-.7c0-.2-.2-.3-.4-.3z"/>
  <path class="cls-3" d="M69 38.5a2.7 2.7 0 0 1-1.8 1.9c0 1.7-1 2.5-1 3.1 0 .5.4.6.8 1.2a3.3 3.3 0 0 1 .5 2.3 3.4 3.4 0 0 1-.4 1.2c-.3.4-.7.3-.7 0 0-.9-.6-.6-.6-.6a4.8 4.8 0 0 1-.6 2.1 8.2 8.2 0 0 1-1.4 1.7 7.8 7.8 0 0 1 1.1.3.8.8 0 0 1 .5.7.8.8 0 0 1 .4.4 1.1 1.1 0 0 1-.5 0s-.3.3-.8 0a2.1 2.1 0 0 1-.5-.4c-.1-.2-.3-.2-.4-.1s0 .2 0 .3a4.6 4.6 0 0 1 .5.7c.1.2.2.6 0 .8a1.2 1.2 0 0 1 0 .5l-.4-.3a.8.8 0 0 1-.6-.6 3 3 0 0 1 0-.9c0-.2 0-.3-.2-.3s-.2 0-.2.2c0 .5-.4 1.2-1 1.3a.9.9 0 0 1-.5.3.8.8 0 0 1 0-.6c-.2-.5 0-1 .8-1.4a.2.2 0 0 0 .2-.3h-.3a7.9 7.9 0 0 1-.8.1c-.4 0-.7 0-.8-.3a1 1 0 0 1-.5-.1.8.8 0 0 1 .4-.3c0-.3.4-.4.7-.5a7 7 0 0 1 1.7.1 6.9 6.9 0 0 0 .9-1.2 3.6 3.6 0 0 0 .5-2 .5.5 0 0 0-.3-.2c-.3 0-.4.2-.5.3a.3.3 0 0 1-.4-.2 3 3 0 0 1 .1-.9 3.2 3.2 0 0 1 .5-.8c-.1-.2-.3-.3-.5-.3a.5.5 0 0 0-.3.4.3.3 0 0 1-.6 0 3 3 0 0 1 0-1.1 4.9 4.9 0 0 1 1-2.7c.4-.5 1.4-1.7 1.4-2.4s-2.2-.7-3.8-1.8a4.1 4.1 0 0 1-1.6-2.3 5.8 5.8 0 0 1-1.5 1.3 9.1 9.1 0 0 1-2 .7 3.5 3.5 0 0 1 .5 1 .8.8 0 0 1-.1.9 1 1 0 0 1-.2.6 1 1 0 0 1-.3-.4c-.3 0-.4-.2-.5-.6a3.7 3.7 0 0 1 0-.7c0-.2-.1-.3-.3-.3s-.1 0-.2.2a4.5 4.5 0 0 1 0 .8c-.1.2-.3.6-.6.6a1.1 1.1 0 0 1-.3.4 1.1 1.1 0 0 1 0-.6c-.2 0-.3-.3 0-.8a1.8 1.8 0 0 1 .4-.6c.1-.2.2-.3 0-.4s-.1 0-.2 0c-.3.2-1.1.6-1.6.2a.7.7 0 0 1-.5-.1.7.7 0 0 1 .5-.4c.2-.3.6-.5 1.6-.4l.3-.1a.2.2 0 0 0-.2-.3 4.7 4.7 0 0 1-.7-.4c-.3-.2-.5-.5-.3-.8a1 1 0 0 1-.3-.4.8.8 0 0 1 .6 0 .8.8 0 0 1 .8.3 8.5 8.5 0 0 1 .9 1 4 4 0 0 0 2.2-1.2 4.2 4.2 0 0 0 .7-2.6.4.4 0 0 0-.2-.4l-.5.2a.3.3 0 0 1-.3-.4 2.2 2.2 0 0 1 .4-.8 3.8 3.8 0 0 1 1-.8 13.2 13.2 0 0 1-1.2-1 7.4 7.4 0 0 1-1.2-2l-.2.7c-.2.5-.4.5-.6.6a1 1 0 0 1-.5.3 1 1 0 0 1 0-.5c-.2-.2-.2-.5 0-.8a1.6 1.6 0 0 1 .3-.5c.2-.2.2-.3 0-.4s-.1 0-.2 0a3.1 3.1 0 0 1-.6.6.9.9 0 0 1-.8 0 1.1 1.1 0 0 1-.6.1c0-.2.3-.5.3-.5 0-.2.1-.3.6-.6a1.9 1.9 0 0 1 .8-.2c.2 0 .3 0 .3-.2s0-.2-.2-.2a1.3 1.3 0 0 1-1.4-.8.7.7 0 0 1-.3-.4.8.8 0 0 1 .7 0c.4-.2.9 0 1.4.7a.2.2 0 1 0 .4-.2l-.3-.8c0-.4 0-.6.2-.8a1 1 0 0 1 .1-.5.8.8 0 0 1 .4.4c.3 0 .5.4.5.7a3.5 3.5 0 0 1 0 1.4 4 4 0 0 0 1 1.5 11.6 11.6 0 0 0 2.4 1.7l.2-.2a.3.3 0 0 0 0-.4c0-.2-.4-.2-.5-.2a.3.3 0 0 1 0-.5 2.7 2.7 0 0 1 1-.4 3 3 0 0 1 1.4 0s.3-.4.1-.5a2.6 2.6 0 0 0-1.8-.2c-.4-.6 0-.8.6-.8a4.7 4.7 0 0 1 1.8.3 1 1 0 0 0-.3-1.6 2.5 2.5 0 0 0-2.3 0 .8.8 0 0 1-.6-.5 1.2 1.2 0 0 1-.1-.8c-.3-.2-.3-.8 1.7-.7a1.7 1.7 0 0 1-.1-1c.2-.6 2.3-.3 2.8-.4l.5-.1a.3.3 0 0 1 .3.3 2.2 2.2 0 0 0-.2.7 3.1 3.1 0 0 1 1.5 1 3.6 3.6 0 0 1 .5 1.5.3.3 0 0 1-.4.3c0-.1-.3-.3-.5-.3s-.3.3-.3.4a2.5 2.5 0 0 1 1.1 1.7 3.6 3.6 0 0 1 0 1.1.3.3 0 0 1-.5.2c0-.2-.2-.4-.4-.4s-.3 0-.4.3a3 3 0 0 1 .3 1.4 3.6 3.6 0 0 1 0 1.1.3.3 0 0 1-.4.1c-.1-.1-.2-.4-.4-.4s-.4.2-.5.4a2.8 2.8 0 0 1 .7 1.5 3.6 3.6 0 0 1 0 1c0 .4-.4.4-.5.2s-.1-.4-.4-.5a.6.6 0 0 0-.4.2A3.5 3.5 0 0 0 63 34a3.3 3.3 0 0 0 1.5 2 6.9 6.9 0 0 1 2.6 3.3 1.5 1.5 0 0 0 .6-2.6c-1-1.3-1.7-1.7-2.1-3.3a3.1 3.1 0 0 1 .7-2.8 1.2 1.2 0 0 1-.2-.6 2.7 2.7 0 0 1 .4-1.6 4.4 4.4 0 0 1 1.9-1.8.7.7 0 0 1 .2.7c-.3.5-1.3 1.3-1.4 1.6s.5.5.6.4l.8-1a.3.3 0 0 1 .4.2 3.7 3.7 0 0 1-.2 1.1 2.2 2.2 0 0 1-1.8 1.3 1 1 0 0 1-.3 0 2.7 2.7 0 0 0-.4 2.2c.1 1 .8 1.5 1.7 2.7s1.3 1.6 1 2.7zm-7.8-16s.6.8 1 .6.2-.6 0-.8-.7-.1-1 .1zM53.4 16l-1-1.4c-.3-.4-.3-1.2.3-1.4a.8.8 0 0 1 .7.3.8.8 0 0 1 .7-.3c.7.2.7.9.4 1.4l-1 1.4zM53.4 60.8l-1-1.4c-.3-.4-.4-1.2.3-1.4a.8.8 0 0 1 .6.2h.1a.8.8 0 0 1 .7-.2c.6.1.7.8.3 1.4l-1 1.4zM58.2 58.6l-1-1.4c-.2-.4-.4-1.2.3-1.4a.8.8 0 0 1 .7.3.8.8 0 0 1 .7-.3c.6.2.7.8.3 1.4l-1 1.4z"/>
  <path class="cls-3" d="M53.4 33.4l-1-1.4c-.3-.5-.3-1.2.3-1.3a.8.8 0 0 1 .7.2.8.8 0 0 1 .7-.2c.7.1.7.8.4 1.3l-1 1.4zM58.2 18.5c-.3-.4-.8-.9-1-1.4s-.4-1.2.3-1.3a.8.8 0 0 1 .7.2.8.8 0 0 1 .7-.2c.6.1.7.8.3 1.3l-1 1.4zM58.5 41.2l-1-1.4c-.3-.4-.3-1.2.3-1.4a.8.8 0 0 1 .7.3.8.8 0 0 1 .7-.3c.7.2.7.8.4 1.4s-.8 1-1 1.4zM49.4 13a2 2 0 0 1 .4 0v47.8a1.5 1.5 0 0 1-.4.1 2 2 0 0 1-.4 0V13a2.3 2.3 0 0 1 .4 0zM24 48.7l-.4-1.3-.4-1.3.4-.2.3.8 3-1-.3-.8.4-.2.9 2.5c.3.8 0 1.6-.5 1.8a1 1 0 0 1-1.1-.4 1.1 1.1 0 0 1-.7 1.3c-.8.3-1.4-.5-1.6-1.2zm1.8-1l-.2-.4-1.1.4c-.3 0-.3.2-.2.5a.7.7 0 0 0 1 .5.7.7 0 0 0 .4-1zm1.6-.4l-.1-.5-1.2.4.1.4a.6.6 0 0 0 .8.3c.3-.1.5-.3.4-.6zM27 56.2l-.3-.7c-.2-.7.8-2 1-2.5v-.2l-1.2.7.2.4-.4.2-.5-1-.6-1.1.4-.2.4.6 2.8-1.5-.4-.7.4-.2.7 1.1.5.9c.6 1.2.4 1.8-.2 2.2a1 1 0 0 1-1.4-.3l-1.1 1.7a1 1 0 0 0 0 .5zm2.5-4l-.1-.2-1.4.7v.2a.8.8 0 0 0 1.2.3.7.7 0 0 0 .3-1zM30.4 60l-.8-1 .3-.3.4.5.5-1-.8-1-1 .3.4.6-.3.3-.6-.8-.5-.6.3-.2.3.3 3.8-1.1a2.2 2.2 0 0 0 .7.3v.1l-2 3.7.2.4-.4.3zm1.4-3.4l-1.3.4.6.8zM37.5 61.6l-1.4 1.7c-.6.8-1.5.8-2.4 0s-1.2-1.7-.7-2.4l1.5-1.8-.5-.5.3-.3 1 .8 1 .9-.3.3-.6-.4-1.4 1.6a1 1 0 0 0 0 1.4 1.1 1.1 0 0 0 1.6 0l1.4-1.6-.5-.5.3-.3.7.6.8.6-.3.3zM43 64.4L41.5 68l-.7-.3-1-3.7-1 2.2.6.3-.2.4-.8-.4-.9-.4.2-.4.6.2 1.2-2.8c0-.2-.2-.3-.6-.5l.2-.4 1.6.7 1 3.4.8-2-.6-.3.2-.4.8.4 1 .4-.2.3zM46 69a4.3 4.3 0 0 1-1.2-.4v.1h-.4v-.3l.3-1h.4a.9.9 0 0 0 .7 1c.5.1.7 0 .8-.4s-.6-.8-1-1.2a1.5 1.5 0 0 1-.6-1.3c0-.7.7-1 1.7-1a8.4 8.4 0 0 1 1 .3v-.2l.5.1-.4 1.3h-.4a.8.8 0 0 0-.6-.9.5.5 0 0 0-.7.5c0 .4.4.7.9 1a1.6 1.6 0 0 1 .7 1.4c-.1.8-.8 1.1-1.8 1zM51.9 69a2.2 2.2 0 1 1-.5-4.3 6.1 6.1 0 0 1 1.3 0v-.1h.4v.4l.1 1h-.4c-.1-.7-.7-.8-1.3-.8a1.5 1.5 0 0 0-1 1.8c0 1 .8 1.7 1.5 1.6a2.3 2.3 0 0 0 1-.2 5.5 5.5 0 0 0 0-.9h.4v1.2a4.3 4.3 0 0 1-1.5.4zM60 66.7l-1.2.5-.2-.4.7-.3-.6-1.3-1.8.8.5 1.3.7-.2.1.4-1.2.4-1.2.5-.1-.4.6-.3-1.2-3-.7.2-.1-.4 1.2-.5 1.1-.5.2.4-.6.3.5 1.3 1.8-.8-.5-1.2-.7.2-.1-.4 1.1-.4 1.2-.6.2.4-.6.4 1.2 3 .7-.2.1.3zM65.4 58.2l1.3 3.8-.4.4-1.8-.8.6 1.8-.5.5-3.7-1.9-.3.2-.3-.2.7-.6.8-.7.2.3-.2.3 2.5 1.2-.5-1.3-1.3-.6-.2.2-.3-.3.7-.6.8-.7.3.3-.4.3 2.5 1.3-1-2.5-.5.3-.2-.3.6-.6.6-.5.3.3zM70.3 57.6l-.3.5-.8 1.2-.4-.3.4-.7-2.6-1.8-.4.5-.4-.2.8-1 .5-.8.6-.8-.2-.2.2-.3.3.1.9.6-.3.4-.6-.3-.7 1 1 .8.6-.8-.4-.3.3-.4 1.2.9-.3.3-.4-.2-.6.8 1 .7h.2a2.8 2.8 0 0 0 .2-.2l.4-.6a1.6 1.6 0 0 0 .2-.3l-.5-.5.3-.3.9.6zM73 53.1l-.6 1.2-.3-.2.2-.7-2.8-1.4-.4.6-.4-.2.6-1.1.6-1.2.3.2-.2.7 2.9 1.4.3-.6.4.2zM74.2 45.8l.5.2h.1a1.5 1.5 0 0 0 .8 0 4.2 4.2 0 0 0-.2 1A6 6 0 0 1 75 48c-.5 1.7-1.7 2.1-2.8 1.8a2.2 2.2 0 0 1-1.4-3 9.4 9.4 0 0 1 .5-1.3h-.1V45l.4.1 1 .3v.4c-.7 0-1 .4-1.3 1a1.8 1.8 0 0 0 3.3 1 1.7 1.7 0 0 0 0-.7l-.9-.3-.2.6h-.4l.4-1.3.3-1.1.4.1zM26.5 37.4a2.2 2.2 0 1 1-4.4.2 6.3 6.3 0 0 1 0-1.3H22V36h1.4v.4c-.7 0-.8.6-.8 1.2s.6 1.2 1.7 1.2a1.6 1.6 0 0 0 1.7-1.4 2.3 2.3 0 0 0-.2-1 5.4 5.4 0 0 0-.8 0v-.5h1.1a4.3 4.3 0 0 1 .4 1.6zM26.8 31l-.2 1.4h-.4v-.6l-1 .2-.2 1.4 1 .5V33h.5l-.1 1-.1.8h-.4v-.4l-3.4-2a2.2 2.2 0 0 0-.3-.7v-.2l4.2-1V30h.5zm-3.4 1.4l1.2.7.1-1zM28.9 25l-.4.7c-.3.6-2 .8-2.5 1v.2l1.2.4.3-.5.4.1-.4 1.1-.3 1.2-.4-.1.1-.7-3-.9-.3.8-.4-.1.3-1.3.3-1c.4-1.4 1-1.7 1.6-1.5a1 1 0 0 1 .9 1.2l2-.5a1 1 0 0 0 .2-.3zm-4.7 1.1v.2l1.5.5v-.2a.8.8 0 0 0-.5-1 .7.7 0 0 0-1 .5zM29.9 22.1a2.2 2.2 0 1 1-3.9-2 2.2 2.2 0 0 1 3-1.1 2.2 2.2 0 0 1 .9 3.1zm-3.5-1.8c-.4.7.3 1.4 1 1.8s1.7.5 2-.2-.2-1.4-1-1.8-1.6-.5-2 .2zM33.6 16.3l-1 1.4-.5.5-.8 1-.3-.2.4-.6-2.6-2-.4.6-.4-.3.8-1 .8-1 .3.3-.4.6 2.6 2 .6-.9a1 1 0 0 0 .2-.3l-.5-.6.3-.4zM35.9 14.3a2.2 2.2 0 1 1-3-3.3 2.2 2.2 0 0 1 3.2 0 2.2 2.2 0 0 1-.3 3.3zm-2.7-3c-.5.6-.2 1.5.3 2s1.4 1.1 2 .6.3-1.4-.3-2-1.4-1-2-.5zM37.5 11l-.5-1 1.9-1 .5.8zM44.8 5.4l-.3 4-.6.3-1.3-1.5v2l-.8.2-2.7-3h-.4l-.2-.4 1-.3 1-.3v.4l-.2.1L42 9V7.6l-1-1h-.3l-.1-.3.8-.3 1.1-.4.2.4-.5.2L44 8.3V5.6l-.5.1-.1-.4.8-.3.7-.2.1.4zM48 8.8l-1.3.1v-.4l.7-.1-.2-3.2h-.7v-.4h1.3l1.2-.2V5l-.7.1.2 3.2h.7v.4zM54.2 9.3L52.4 9l-.6-.1-1.3-.2.1-.4h.7l.5-3.1-.7-.2.1-.4 1.3.2 1.2.2v.4H53l-.5 3.2 1 .1a1 1 0 0 0 .3 0l.4-.6h.4zM59.3 11.4L58 11l.1-.4.7.2.6-1.2-1.9-.9-.5 1.3.6.3-.2.4-1.1-.6-1.2-.6.2-.3.6.2 1.4-2.8-.6-.4.2-.4 1.2.6 1.1.6-.2.3-.6-.2-.6 1.2 1.8.9.6-1.2-.6-.4.2-.3 1.1.5 1.2.5-.2.4-.7-.3-1.3 3 .6.3-.2.4zM62.5 13.8l-.5-.4-1-.9.3-.3.6.4 2-2.4-.4-.5.2-.3 1 .8.7.6.8.6.2-.1.3.3-.2.2-.7.8-.3-.2.3-.6-1-.8-.8 1 .7.6.4-.3.3.3-1 1-.3-.2.2-.4-.7-.6-.8 1a2.7 2.7 0 0 0 .2.3l.6.5a1.5 1.5 0 0 0 .2.2l.5-.4.4.2-.7.8zM67 18.7l-1.1-1.4-.4-.5-.8-1 .3-.2.5.5L68 14l-.4-.6.3-.2.8 1 .8 1-.3.2-.5-.4-2.5 2 .6.8a1 1 0 0 0 .3.2l.8-.3.2.4zM70 24l-.6-1 .4-.2.3.4 2.4-1.2h-3.7l2-2.8-2.2 1 .2.6-.4.2-.3-.6-.5-1 .4-.2.3.5 3-1.3-.3-.6.4-.2.5 1 .3.6-1.7 2.3h2.8l.2.4.7 1.3-.4.2-.3-.6-2.9 1.5.3.7-.4.2zM71.1 27.4l-.4-1.2.4-.2.3.7 3-1v-.6l.3-.1.4 1.2.3 1.2-.4.2-.2-.7-3 1v.6l-.4.1zM76 33.6l-3.7.6-.1-.8 2.6-2.8-2.4.4v.6h-.5v-.8l-.2-1 .4-.1.1.6 3.1-.4c.1-.1.1-.4 0-.8h.5l.2 1.7-2.3 2.5L76 33v-.6l.4-.1.1.9.2 1h-.4zM72.4 39.2v-1.4h.5v.6l1-.3v-1.4l-1-.4-.1.8h-.4v-1.8h.4v.4l3.6 1.6a2.2 2.2 0 0 0 .4.6v.2l-4 1.5v.4h-.5zm3.3-1.7l-1.3-.5v1zM92.5 17.3v8.4h-1.8v-8.4h-2.9v-1.5h7.7v1.5zM97.1 22.5a1.9 1.9 0 0 0 1.8 1.8 3.8 3.8 0 0 0 2.4-1l.1 1.8a5 5 0 0 1-2.9.8 3.3 3.3 0 0 1-3.3-3.6c0-2.3 1.4-3.6 3.3-3.6 2.4 0 3 1.2 3 3.8zm1.4-2.4a2.4 2.4 0 0 0-.7.2 2 2 0 0 0-.6 1h2.7c0-.7-.2-1.2-1.4-1.2zM106.5 25.9c-2 0-3.3-1.3-3.3-3.7a3.2 3.2 0 0 1 3.2-3.5c1.4 0 2.5.3 2.5 1.4v.4a3.8 3.8 0 0 1 0 .4h-1.7c0-.6-.2-.7-.7-.7a1.4 1.4 0 0 0-.5 0c-.2 0-.9.5-.9 2 0 1.8 1 2.2 1.8 2.2a2.7 2.7 0 0 0 2-.9l.1 1.7a4.5 4.5 0 0 1-2.5.7zM117 25.7h-1.7v-3c0-2 0-2.4-.8-2.4a2.1 2.1 0 0 0-.9.1 5.7 5.7 0 0 0-.9.9v4.4H111v-11h1.8v4.8a2.5 2.5 0 0 1 1.9-.8c2.3 0 2.5 1.4 2.5 3v4zM125.4 25.7h-1.9l.1-3.5a8.3 8.3 0 0 0 0-.8c0-.9-.2-1.1-.8-1.1a2 2 0 0 0-.8.1 5 5 0 0 0-1 .9v4.4h-1.7v-4.8a14.2 14.2 0 0 0-.2-2h1.6l.2.8a2.6 2.6 0 0 1 2-1c2.4 0 2.6 1.5 2.6 3v.8l-.1 3.2zM128.4 17.6a1.1 1.1 0 0 1-1-1 1 1 0 0 1 1-1.2 1 1 0 0 1 1 1 1 1 0 0 1-1 1.2zm-1 8V19h1.9v6.8zM133.4 25.9a4.6 4.6 0 0 1-2.4-.7l.1-1.5a3.8 3.8 0 0 0 2.3.7c.9 0 1-.3 1-.5 0-1-3.5-.8-3.5-3.2 0-1.2 1-2 2.8-2a5 5 0 0 1 2.4.6l-.2 1.6a3.5 3.5 0 0 0-2.2-.8c-.3 0-1 .1-1 .5 0 1 3.6.8 3.6 3.1 0 1.2-1 2.2-2.9 2.2zM141.1 25.9c-2 0-3.3-1.3-3.3-3.7a3.2 3.2 0 0 1 3.1-3.5c1.4 0 2.6.3 2.6 1.4v.4a3.7 3.7 0 0 1 0 .4h-1.8c0-.6-.1-.7-.6-.7a1.4 1.4 0 0 0-.6 0c-.1 0-.8.5-.8 2 0 1.8 1 2.2 1.8 2.2a2.7 2.7 0 0 0 2-.9l.1 1.7a4.5 4.5 0 0 1-2.5.7zM151.3 25.7h-1.8v-3c0-2 0-2.4-.7-2.4a2.1 2.1 0 0 0-.9.1 5.7 5.7 0 0 0-.9.9v4.4h-1.8v-11h1.8v4.8a2.5 2.5 0 0 1 1.9-.8c2.3 0 2.5 1.4 2.5 3v4zM154.9 22.5a1.9 1.9 0 0 0 1.7 1.8 3.8 3.8 0 0 0 2.4-1l.2 1.8a5 5 0 0 1-3 .8 3.3 3.3 0 0 1-3.2-3.6c0-2.2 1.4-3.6 3.3-3.6 2.3 0 3 1.2 3 3.8zm1.4-2.4a2.4 2.4 0 0 0-.8.2 2 2 0 0 0-.6 1h2.7c0-.7-.2-1.2-1.3-1.2zM97 38.2c0 2.5-1.9 3.7-4.3 3.7-2 0-4-1.2-4-3.4v-6.7h1.9v6.3a2 2 0 0 0 2.2 2.2 2 2 0 0 0 2.3-2.2v-6.3h1.8zM105 41.7h-1.8v-3.5a8.3 8.3 0 0 0 0-.8c0-.9-.2-1.1-.7-1.1a2 2 0 0 0-.9.1 5 5 0 0 0-.9.8v4.5h-1.9v-4.8a14.2 14.2 0 0 0-.1-2h1.6l.2.8a2.6 2.6 0 0 1 2-1c2.4 0 2.6 1.4 2.6 3v.8l-.1 3.2zM108.1 33.6a1.1 1.1 0 0 1-1-1 1 1 0 0 1 1-1.2 1 1 0 0 1 1 1 1 1 0 0 1-1 1.2zm-.9 8V35h1.8v6.8zM114.3 41.9H113l-2.5-7h2l1.3 4.1L115 35h1.8zM119.8 38.5a1.9 1.9 0 0 0 1.8 1.9 3.8 3.8 0 0 0 2.3-1l.2 1.7a5 5 0 0 1-2.9.8 3.3 3.3 0 0 1-3.3-3.6c0-2.2 1.4-3.6 3.3-3.6 2.3 0 3 1.3 3 3.8zm1.4-2.4a2.4 2.4 0 0 0-.8.2 2 2 0 0 0-.5 1h2.7c-.1-.7-.2-1.2-1.4-1.2zM129 37c0-.4 0-.8-.4-.8s-.4.4-.7.9v4.6h-1.8v-4.8a12.8 12.8 0 0 0-.1-2h1.6l.2.8a1.9 1.9 0 0 1 1.4-1c.9 0 1.2.6 1.2 1.4a4.6 4.6 0 0 1 0 .6zM134 41.9a4.6 4.6 0 0 1-2.4-.7l.2-1.5a3.8 3.8 0 0 0 2.2.7c.9 0 1-.3 1-.5 0-1-3.4-.8-3.4-3.2 0-1.2 1-2 2.8-2a5 5 0 0 1 2.3.6l-.2 1.6a3.5 3.5 0 0 0-2.2-.8c-.3 0-1 .1-1 .5 0 1 3.6.8 3.6 3.1 0 1.2-1 2.2-2.8 2.2zM139.7 33.6a1.1 1.1 0 0 1-1-1 1 1 0 0 1 1-1.2 1 1 0 0 1 1 1 1 1 0 0 1-1 1.2zm-.9 8V35h1.8v6.8zM145 41.9a1.7 1.7 0 0 1-1.7-1.9v-3.9h-1V35h1v-2.3h1.8v2.3h1.5v1.2H145v3.5c0 .7.2.7.3.7a3 3 0 0 0 1.3-.5l.2 1.5a3.9 3.9 0 0 1-1.8.6zM152.3 41.7a5.9 5.9 0 0 1-.2-.8 2.4 2.4 0 0 1-2 1 1.8 1.8 0 0 1-2-1.7 2.5 2.5 0 0 1 .4-1.4c.4-.5 2.4-1 3.3-1.2V37c0-.7 0-1-.8-1-.3 0-1 0-1 .2a1 1 0 0 0-.1.5l-1.5.1v-.3a3.7 3.7 0 0 1 .1-1 3.3 3.3 0 0 1 2.6-.8c1.6 0 2.5.7 2.5 2v3a10.2 10.2 0 0 0 .3 2zm-2.4-7.9a1 1 0 0 1-1-1 1 1 0 0 1 1-1 1 1 0 0 1 1 1 1 1 0 0 1-1 1zm2 5a9.8 9.8 0 0 0-1.8.5 1.2 1.2 0 0 0 0 .5c0 .4 0 .7.5.7a2 2 0 0 0 1.3-.8zm.5-5a1 1 0 0 1-1-1 1 1 0 0 1 1-1 1 1 0 0 1 1 1 1 1 0 0 1-1 1zM157.8 41.9A1.7 1.7 0 0 1 156 40v-3.9h-1V35h1v-2.3h1.8v2.3h1.5v1.2h-1.5v3.5c0 .7.2.7.3.7a3 3 0 0 0 1.3-.5l.2 1.5a3.9 3.9 0 0 1-1.8.6zM92.9 57.7H89v-9.8l3.5-.2c2.3 0 3.2 1.3 3.2 2.5a2.2 2.2 0 0 1-1.3 2.2 2.4 2.4 0 0 1 1.9 2.5c0 1.7-1.4 2.8-3.4 2.8zm-.7-8.5h-1.4v2.5h1.3c1.2 0 1.6-.5 1.6-1.3s-.5-1.2-1.5-1.2zm.2 4h-1.6v3h1.5c1.5 0 2-.5 2-1.5s-.7-1.5-1.9-1.5zM100.7 53c0-.4 0-.8-.3-.8s-.4.4-.7.9v4.6H98v-4.8a12.8 12.8 0 0 0-.2-2h1.6l.2.8a1.9 1.9 0 0 1 1.5-1c.9 0 1.2.6 1.2 1.4a4.6 4.6 0 0 1 0 .6zM107 57.7a5.9 5.9 0 0 1-.2-.8 2.4 2.4 0 0 1-1.9 1 1.8 1.8 0 0 1-2-1.7 2.5 2.5 0 0 1 .4-1.4c.3-.5 2.3-1 3.3-1.2V53c0-.7-.1-1-1-1-.2 0-.8 0-1 .2a1 1 0 0 0 0 .5l-1.5.1v-.3a3.7 3.7 0 0 1 .2-1 3.3 3.3 0 0 1 2.5-.8c1.6 0 2.6.7 2.6 2v3a10.2 10.2 0 0 0 .2 2zm-.4-3a9.8 9.8 0 0 0-1.8.6 1.2 1.2 0 0 0 0 .5c0 .4 0 .7.5.7a2 2 0 0 0 1.3-.8zM115 57.7l-.1-.8a2.6 2.6 0 0 1-2 1c-1.9 0-2.5-.8-2.5-2.5v-4.5h1.8v4.3c0 .6 0 1.1.8 1.1a2.2 2.2 0 0 0 .8-.1 6.7 6.7 0 0 0 1-.9V51h1.7v4.8a12.8 12.8 0 0 0 .2 2zM124.7 57.7h-1.8v-3.5a8.3 8.3 0 0 0 0-.8c0-.9-.2-1.1-.7-1.1a2 2 0 0 0-.9.1 5 5 0 0 0-.9.8v4.5h-1.8v-4.8a14.2 14.2 0 0 0-.2-2h1.6l.2.8a2.6 2.6 0 0 1 2-1c2.4 0 2.6 1.4 2.6 3v.8l-.1 3.2zM129 57.9a4.6 4.6 0 0 1-2.6-.7l.2-1.5a3.8 3.8 0 0 0 2.3.7c.8 0 1-.3 1-.5 0-1-3.5-.8-3.5-3.2 0-1.2 1-2 2.8-2a5 5 0 0 1 2.4.6l-.2 1.6a3.5 3.5 0 0 0-2.3-.8c-.3 0-.9.1-.9.5 0 1 3.6.8 3.6 3.1 0 1.2-1 2.2-2.9 2.2zM136.2 57.9c-2 0-3.3-1.3-3.3-3.7a3.2 3.2 0 0 1 3.2-3.5c1.4 0 2.5.3 2.5 1.4v.4a3.7 3.7 0 0 1 0 .4H137c0-.6-.2-.7-.7-.7a1.4 1.4 0 0 0-.5 0c-.2.1-.9.5-.9 2 0 1.8 1 2.2 1.8 2.2a2.7 2.7 0 0 0 2-.9l.1 1.7a4.5 4.5 0 0 1-2.5.7zM146.4 57.7h-1.8v-3c0-2 0-2.4-.7-2.4a2.1 2.1 0 0 0-1 .1 5.7 5.7 0 0 0-.8.8v4.5h-1.8v-11h1.8v4.8a2.5 2.5 0 0 1 1.8-.8c2.4 0 2.6 1.5 2.6 3v4zM154.9 57.9h-1l-1.4-3.2-1.3 3.2h-1l-2.7-7h2l1.4 3.9 1.6-4.1 1.8 4.2 1.4-4h1.7zM159.8 54.5a1.9 1.9 0 0 0 1.8 1.9 3.8 3.8 0 0 0 2.3-1l.2 1.7a5 5 0 0 1-2.9.8 3.3 3.3 0 0 1-3.3-3.6c0-2.2 1.4-3.6 3.3-3.6 2.3 0 3 1.3 3 3.8zm1.4-2.4a2.4 2.4 0 0 0-.7.2 2 2 0 0 0-.6 1h2.7c0-.7-.2-1.2-1.4-1.2zM166.9 49.6a1.1 1.1 0 0 1-1-1 1 1 0 0 1 1-1.2 1 1 0 0 1 1 1.1 1 1 0 0 1-1 1.1zm-.9 8V51h1.8v6.8zM175.7 52.5a2.1 2.1 0 0 1 .1.8c0 1.6-1.2 2.7-3.1 2.7a3 3 0 0 1-1-.1c-.2.2-.4.4-.4.7a.3.3 0 0 0 .4.3l2.2-.1c1.6 0 2.6.2 2.6 1.8 0 2-2.1 3-4.1 3-1.6 0-3-.3-3-1.6a1.9 1.9 0 0 1 1.3-1.7 1.3 1.3 0 0 1-1-1.2c0-.7.8-1 1.3-1.5a2.3 2.3 0 0 1-1.4-2.3c0-1.5 1.3-2.5 3.1-2.5a3 3 0 0 1 1.8.5 9.7 9.7 0 0 0 2.4-.3v1.6zm-2 5.9H172c-.4.4-.7.7-.7 1 0 .6.4.8 1.4.8 1.4 0 2-.8 2-1.4 0-.4 0-.4-1-.4zm-1-6.3a1.5 1.5 0 0 0-.9.2 1.6 1.6 0 0 0-.3 1 1.2 1.2 0 0 0 1.2 1.3 1.8 1.8 0 0 0 .9-.2 1.4 1.4 0 0 0 .3-1 1 1 0 0 0-1.2-1.3z"/>
</svg>
