<?xml version="1.0" encoding="UTF-8" standalone="no"?>
<svg
   width="121.51pt"
   height="23.19pt"
   viewBox="0 0 121.51 23.19"
   version="1.1"
   id="svg188"
   xmlns="http://www.w3.org/2000/svg"
   xmlns:svg="http://www.w3.org/2000/svg">
  <defs
     id="defs170">
    <clipPath
       id="clip-0">
      <path
         clip-rule="nonzero"
         d="M 106 0 L 121.511719 0 L 121.511719 23 L 106 23 Z M 106 0 "
         id="path164" />
    </clipPath>
    <clipPath
       id="clip-1">
      <path
         clip-rule="nonzero"
         d="M 83 0 L 102 0 L 102 23.191406 L 83 23.191406 Z M 83 0 "
         id="path167" />
    </clipPath>
  </defs>
  <g
     clip-path="url(#clip-0)"
     id="g174">
    <path
       fill-rule="nonzero"
       fill="rgb(11.361694%, 21.984863%, 37.297058%)"
       fill-opacity="1"
       d="M 108.097656 10.253906 L 108.097656 1.722656 L 114.007812 1.722656 C 116.722656 1.722656 118.863281 2.96875 118.863281 5.910156 C 118.863281 8.914062 116.402344 10.253906 113.71875 10.253906 Z M 108.097656 21.082031 L 108.097656 11.945312 L 114.105469 11.945312 C 117.070312 11.945312 119.46875 13.320312 119.46875 16.453125 C 119.46875 19.644531 117.140625 21.082031 114.164062 21.082031 Z M 106.085938 22.808594 L 114.648438 22.808594 C 118.128906 22.808594 121.511719 20.828125 121.511719 16.511719 C 121.511719 13.800781 119.820312 11.4375 116.625 10.957031 L 116.625 10.925781 C 119.277344 10.289062 120.84375 8.082031 120.84375 5.589844 C 120.84375 1.917969 118.316406 0 114.484375 0 L 106.085938 0 L 106.085938 22.808594 "
       id="path172" />
  </g>
  <g
     clip-path="url(#clip-1)"
     id="g178">
    <path
       fill-rule="nonzero"
       fill="rgb(11.361694%, 21.984863%, 37.297058%)"
       fill-opacity="1"
       d="M 92.726562 23.191406 C 98.0625 23.191406 101.960938 20.125 101.960938 14.566406 L 101.960938 0.03125 L 97.039062 0.03125 L 97.039062 14.40625 C 97.039062 17.378906 95.570312 18.910156 92.824219 18.910156 C 89.882812 18.910156 88.542969 17.089844 88.542969 14.40625 L 88.542969 0.03125 L 83.5625 0.03125 L 83.5625 14.851562 C 83.5625 20.445312 87.207031 23.191406 92.726562 23.191406 "
       id="path176" />
  </g>
  <path
     fill-rule="nonzero"
     fill="rgb(11.361694%, 21.984863%, 37.297058%)"
     fill-opacity="1"
     d="M 75.535156 15.179688 C 78.71875 13.371094 79.949219 10.6875 79.949219 7.972656 C 79.949219 3.503906 76.75 0.0195312 72.023438 0.0195312 L 61.949219 0.0195312 L 61.949219 22.792969 L 66.898438 22.792969 L 66.898438 4.042969 L 70.792969 4.042969 C 73.566406 4.042969 75.101562 5.699219 75.101562 7.972656 C 75.101562 9.933594 73.898438 11.921875 70.824219 11.921875 L 67.707031 11.921875 L 75.535156 22.792969 L 81 22.792969 L 75.535156 15.179688 "
     id="path180" />
  <path
     fill-rule="nonzero"
     fill="rgb(11.361694%, 21.984863%, 37.297058%)"
     fill-opacity="1"
     d="M 0.0898438 22.765625 L 2.214844 22.765625 C 3.050781 22.765625 3.847656 22.277344 3.847656 21.269531 C 3.847656 20.636719 3.472656 20.085938 2.757812 19.960938 L 2.757812 19.953125 C 3.359375 19.777344 3.691406 19.292969 3.691406 18.726562 C 3.691406 17.847656 3.089844 17.398438 2.152344 17.398438 L 0.0898438 17.398438 Z M 0.699219 22.25 L 0.699219 20.265625 L 2.078125 20.265625 C 2.742188 20.265625 3.238281 20.5625 3.238281 21.238281 C 3.238281 21.925781 2.742188 22.25 2.085938 22.25 Z M 0.699219 19.757812 L 0.699219 17.917969 L 2.027344 17.917969 C 2.636719 17.917969 3.09375 18.179688 3.09375 18.816406 C 3.09375 19.457031 2.589844 19.757812 1.988281 19.757812 Z M 6.886719 22.867188 C 7.992188 22.867188 8.917969 22.136719 8.917969 20.921875 L 8.917969 19.152344 C 8.917969 17.976562 8.015625 17.292969 6.871094 17.292969 C 5.761719 17.292969 4.828125 18.015625 4.828125 19.234375 L 4.828125 21.066406 C 4.828125 22.242188 5.761719 22.867188 6.886719 22.867188 M 6.886719 22.324219 C 6.039062 22.324219 5.429688 21.820312 5.429688 20.996094 L 5.429688 19.226562 C 5.429688 18.339844 6.0625 17.835938 6.847656 17.835938 C 7.710938 17.835938 8.316406 18.316406 8.316406 19.132812 L 8.316406 20.96875 C 8.316406 21.847656 7.660156 22.324219 6.886719 22.324219 M 12.058594 22.867188 C 13.128906 22.867188 13.957031 22.273438 13.957031 21.253906 L 13.957031 21.058594 L 13.378906 21.058594 L 13.378906 21.171875 C 13.378906 21.894531 12.84375 22.324219 12.058594 22.324219 C 11.214844 22.324219 10.605469 21.8125 10.605469 20.996094 L 10.605469 19.195312 C 10.605469 18.347656 11.238281 17.847656 12.019531 17.847656 C 12.8125 17.847656 13.378906 18.269531 13.378906 18.996094 L 13.378906 19.183594 L 13.957031 19.183594 L 13.957031 18.917969 C 13.957031 17.925781 13.113281 17.308594 12.042969 17.308594 C 10.867188 17.308594 10.003906 18.058594 10.003906 19.207031 L 10.003906 21.066406 C 10.003906 22.242188 10.914062 22.867188 12.058594 22.867188 M 15.09375 22.765625 L 15.703125 22.765625 L 15.703125 20.257812 L 18.425781 20.257812 L 18.425781 22.765625 L 19.035156 22.765625 L 19.035156 17.398438 L 18.425781 17.398438 L 18.425781 19.726562 L 15.703125 19.726562 L 15.703125 17.398438 L 15.09375 17.398438 Z M 22.3125 22.859375 C 23.503906 22.859375 24.316406 22.160156 24.308594 20.976562 L 24.308594 17.398438 L 23.707031 17.398438 L 23.707031 20.929688 C 23.726562 21.8125 23.203125 22.3125 22.328125 22.3125 C 21.519531 22.3125 20.941406 21.863281 20.941406 20.910156 L 20.941406 17.398438 L 20.332031 17.398438 L 20.332031 21.011719 C 20.332031 22.3125 21.273438 22.859375 22.3125 22.859375 M 25.601562 22.765625 L 26.191406 22.765625 L 26.191406 18.46875 L 26.214844 18.46875 L 27.789062 21.523438 L 28.269531 21.523438 L 29.84375 18.460938 L 29.859375 18.460938 L 29.859375 22.765625 L 30.449219 22.765625 L 30.449219 17.398438 L 29.695312 17.398438 L 28.042969 20.6875 L 28.035156 20.6875 L 26.347656 17.398438 L 25.601562 17.398438 L 25.601562 22.765625 "
     id="path182" />
  <path
     fill-rule="nonzero"
     fill="rgb(11.361694%, 21.984863%, 37.297058%)"
     fill-opacity="1"
     d="M 2.101562 14.160156 C 3.351562 14.160156 4.203125 13.429688 4.203125 12.148438 L 4.203125 8.707031 L 3.199219 8.707031 L 3.199219 12.105469 C 3.199219 12.871094 2.832031 13.257812 2.101562 13.257812 C 1.316406 13.257812 1 12.765625 1 12.105469 L 1 8.707031 L 0 8.707031 L 0 12.226562 C 0 13.511719 0.851562 14.160156 2.101562 14.160156 M 5.398438 14.074219 L 6.363281 14.074219 L 6.363281 10.40625 L 6.378906 10.40625 L 8.707031 14.074219 L 9.6875 14.074219 L 9.6875 8.707031 L 8.722656 8.707031 L 8.722656 12.367188 L 8.707031 12.367188 L 6.371094 8.707031 L 5.398438 8.707031 Z M 10.921875 14.074219 L 11.921875 14.074219 L 11.921875 8.707031 L 10.921875 8.707031 Z M 14.378906 14.097656 L 15.359375 14.097656 L 17.136719 8.707031 L 16.140625 8.707031 L 14.929688 12.660156 L 14.914062 12.660156 L 13.703125 8.707031 L 12.617188 8.707031 Z M 17.828125 14.074219 L 21.589844 14.074219 L 21.589844 13.195312 L 18.832031 13.195312 L 18.832031 11.777344 L 21.25 11.777344 L 21.25 10.898438 L 18.832031 10.898438 L 18.832031 9.585938 L 21.558594 9.585938 L 21.558594 8.707031 L 17.828125 8.707031 Z M 22.6875 14.074219 L 23.691406 14.074219 L 23.691406 12.066406 L 24.554688 12.066406 L 25.816406 14.074219 L 26.90625 14.074219 L 25.574219 11.953125 C 26.296875 11.695312 26.636719 11.03125 26.636719 10.394531 C 26.636719 9.292969 25.824219 8.707031 24.8125 8.707031 L 22.6875 8.707031 Z M 23.691406 11.222656 L 23.691406 9.550781 L 24.675781 9.550781 C 25.234375 9.550781 25.65625 9.753906 25.65625 10.386719 C 25.65625 10.941406 25.273438 11.222656 24.691406 11.222656 Z M 29.535156 14.160156 C 30.71875 14.160156 31.597656 13.503906 31.597656 12.519531 C 31.597656 11.5625 31.011719 11.179688 30.371094 11.027344 L 29.453125 10.800781 C 29.03125 10.6875 28.667969 10.511719 28.667969 10.136719 C 28.667969 9.65625 29.089844 9.460938 29.527344 9.460938 C 30.046875 9.460938 30.449219 9.625 30.683594 10.074219 L 31.5 9.714844 C 31.15625 8.910156 30.507812 8.613281 29.609375 8.613281 C 28.570312 8.613281 27.691406 9.203125 27.691406 10.210938 C 27.691406 11.160156 28.261719 11.484375 28.976562 11.667969 L 29.882812 11.882812 C 30.296875 12.007812 30.621094 12.1875 30.621094 12.585938 C 30.621094 13.082031 30.109375 13.292969 29.566406 13.292969 C 28.964844 13.292969 28.472656 13 28.269531 12.480469 L 27.367188 12.835938 C 27.644531 13.746094 28.546875 14.160156 29.535156 14.160156 M 32.609375 14.074219 L 33.609375 14.074219 L 33.609375 8.707031 L 32.609375 8.707031 Z M 36.050781 14.074219 L 37.042969 14.074219 L 37.042969 9.566406 L 38.589844 9.566406 L 38.589844 8.707031 L 34.507812 8.707031 L 34.507812 9.566406 L 36.050781 9.566406 Z M 38.363281 14.074219 L 39.351562 14.074219 L 39.757812 12.933594 L 41.804688 12.933594 L 42.199219 14.074219 L 43.261719 14.074219 L 41.277344 8.707031 L 40.359375 8.707031 Z M 40.035156 12.074219 L 40.773438 9.925781 L 40.789062 9.925781 L 41.519531 12.074219 Z M 39.605469 8.226562 L 40.503906 8.226562 L 40.503906 7.238281 L 39.605469 7.238281 Z M 41.113281 8.226562 L 42.011719 8.226562 L 42.011719 7.238281 L 41.113281 7.238281 Z M 44.636719 14.074219 L 45.632812 14.074219 L 45.632812 9.566406 L 47.175781 9.566406 L 47.175781 8.707031 L 43.09375 8.707031 L 43.09375 9.566406 L 44.636719 9.566406 L 44.636719 14.074219 "
     id="path184" />
  <path
     fill-rule="nonzero"
     fill="rgb(11.361694%, 21.984863%, 37.297058%)"
     fill-opacity="1"
     d="M 0.0390625 5.386719 L 1.039062 5.386719 L 1.039062 3.375 L 1.90625 3.375 L 3.164062 5.386719 L 4.253906 5.386719 L 2.921875 3.261719 C 3.644531 3.007812 3.984375 2.34375 3.984375 1.703125 C 3.984375 0.601562 3.171875 0.015625 2.160156 0.015625 L 0.0390625 0.015625 Z M 1.039062 2.53125 L 1.039062 0.859375 L 2.027344 0.859375 C 2.582031 0.859375 3.003906 1.0625 3.003906 1.695312 C 3.003906 2.253906 2.621094 2.53125 2.042969 2.53125 Z M 7.15625 5.46875 C 8.40625 5.46875 9.257812 4.738281 9.257812 3.457031 L 9.257812 0.015625 L 8.253906 0.015625 L 8.253906 3.414062 C 8.253906 4.183594 7.886719 4.566406 7.15625 4.566406 C 6.371094 4.566406 6.054688 4.078125 6.054688 3.414062 L 6.054688 0.015625 L 5.054688 0.015625 L 5.054688 3.535156 C 5.054688 4.824219 5.90625 5.46875 7.15625 5.46875 M 10.457031 5.386719 L 11.457031 5.386719 L 11.457031 3.089844 L 13.605469 3.089844 L 13.605469 5.386719 L 14.605469 5.386719 L 14.605469 0.015625 L 13.605469 0.015625 L 13.605469 2.207031 L 11.457031 2.207031 L 11.457031 0.015625 L 10.457031 0.015625 Z M 15.84375 5.386719 L 16.84375 5.386719 L 16.84375 3.375 L 17.710938 3.375 L 18.96875 5.386719 L 20.058594 5.386719 L 18.726562 3.261719 C 19.449219 3.007812 19.785156 2.34375 19.785156 1.703125 C 19.785156 0.601562 18.976562 0.015625 17.964844 0.015625 L 15.84375 0.015625 Z M 16.84375 2.53125 L 16.84375 0.859375 L 17.828125 0.859375 C 18.386719 0.859375 18.808594 1.0625 18.808594 1.695312 C 18.808594 2.253906 18.421875 2.53125 17.84375 2.53125 L 16.84375 2.53125 "
     id="path186" />
</svg>
