<?xml version="1.0" encoding="UTF-8" standalone="no"?>
<svg xmlns:svg="http://www.w3.org/2000/svg" xmlns="http://www.w3.org/2000/svg" version="1.1" width="519.09399" height="336.95844" id="svg3261">
  <defs id="defs3263"/>
  <g transform="translate(-90.453007,-363.88296)" id="layer1">
    <path d="m 395.16064,366.88296 0,149.4651 40.78262,0 0,-76.65424 42.06375,76.65424 45.4801,0 41.20966,-77.08129 0,77.08129 41.85023,0 0,-149.4651 -45.26657,0 -61.49422,111.24474 -61.06717,-111.24474 -43.5584,0 z m -153.73553,0.85409 c -81.93249,0 -147.569025,63.5611 -147.970446,153.30849 -0.383997,85.39154 66.037956,155.87074 147.970446,155.87074 81.03571,0 146.93701,-67.72904 148.3975,-151.81383 l -93.9495,0 -35.87162,-97.79288 -38.22036,0 -54.23448,162.27639 c 0,0 -0.7516,2.22063 -0.21318,3.20282 0.53842,0.97366 2.56226,0.85409 2.56226,0.85409 l 34.59049,0 10.8896,-31.81471 54.448,0 12.38425,31.38767 36.29867,0 -9.39495,-31.38767 34.16345,0 c -12.52944,43.95128 -53.1327,74.73255 -100.9957,74.73255 -61.033,0 -109.53657,-52.13343 -109.53657,-116.15574 0,-64.02231 48.29004,-113.59347 109.32305,-113.59347 36.51219,0 68.91622,18.55075 89.03849,47.18826 l 29.46564,-23.70089 C 333.53832,392.29203 290.31301,367.73705 241.42511,367.73705 z m -0.85408,115.30165 15.80059,42.70431 -29.03893,0.21318 13.23834,-42.91783 z m 154.58961,43.5584 0,149.4651 40.78262,0 0,-76.65425 42.06375,76.65425 45.4801,0 41.20966,-76.86777 0,76.86777 41.85023,0 0,-149.4651 -45.26657,0 -61.49422,111.24474 -61.06717,-111.24474 -43.5584,0 z m -301.278933,162.48991 0,8.75439 512.451773,0 0,-8.75439 -512.451773,0 z" id="path234" style="fill:#1b8028;fill-opacity:1;fill-rule:evenodd;stroke:none"/>
  </g>
</svg>