<?xml version="1.0" encoding="UTF-8" standalone="no"?>
<svg xmlns:dc="http://purl.org/dc/elements/1.1/" xmlns:cc="http://creativecommons.org/ns#" xmlns:rdf="http://www.w3.org/1999/02/22-rdf-syntax-ns#" xmlns:svg="http://www.w3.org/2000/svg" xmlns="http://www.w3.org/2000/svg" version="1.0" width="99.990593mm" height="53.064442mm" id="svg17">
  <metadata id="metadata21">
    <rdf:RDF>
      <cc:Work rdf:about="">
        <dc:format>image/svg+xml</dc:format>
        <dc:type rdf:resource="http://purl.org/dc/dcmitype/StillImage"/>
        <dc:title/>
      </cc:Work>
    </rdf:RDF>
  </metadata>
  <defs id="defs3">
    <pattern id="EMFhbasepattern" patternUnits="userSpaceOnUse" width="6" height="6" x="0" y="0"/>
  </defs>
  <path style="fill:#006e97;fill-opacity:1;fill-rule:nonzero;stroke:none" d="m 148.9589,199.11853 -4.63997,-61.11955 h -11.27991 c -6.63996,13.5199 -12.55991,26.07981 -18.87986,39.67971 -5.43996,-13.5199 -10.63993,-25.67981 -17.039881,-39.67971 h -12.55991 l -4.63996,61.11955 h 10.23992 l 3.43998,-45.51966 19.359851,46.95965 22.47984,-46.79966 2.87998,45.35967 z m 62.87953,-61.11955 h -11.27991 v 38.95971 c 0,10.87992 -7.27995,13.5999 -14.3999,13.5999 -5.83995,0 -13.5199,-2.63998 -13.5199,-13.5199 v -39.03971 h -11.19991 v 41.67969 c 0,13.1999 11.83991,20.55985 24.39981,20.55985 15.03989,0 25.99981,-6.95995 25.99981,-22.87983 z m 50.47963,44.15967 c 0,-8.63993 -6.31996,-12.23991 -15.75989,-17.83986 -4.23996,-2.39999 -10.95991,-5.03997 -10.95991,-10.23993 0,-3.83997 2.87997,-7.59994 8.23993,-7.59994 5.67996,0 9.19994,0.79999 16.87988,5.19996 l 0.87999,-11.19992 c -6.39995,-2.63998 -10.07992,-3.51997 -18.23986,-3.51997 -12.23991,0 -19.99985,7.83994 -19.99985,17.83987 0,8.31994 5.67995,12.7199 16.47987,18.63986 3.91998,2.15998 10.47993,4.63996 10.47993,9.51993 0,4.55996 -4.23997,7.83994 -9.35993,7.83994 -5.67996,0 -9.19994,-1.11999 -16.31988,-5.27996 l -1.59999,11.03992 c 6.39995,2.87998 11.43991,3.83997 18.31986,3.83997 9.99993,0 20.95985,-6.07996 20.95985,-18.23987 z m 49.51963,16.95988 v -9.51993 h -27.2798 v -16.71988 h 21.91984 v -9.59993 h -21.91984 v -15.67988 h 25.35982 v -9.59993 h -36.55973 v 61.11955 z m 66.07951,0 v -61.27955 h -10.71992 v 43.99968 L 335.43752,137.99898 H 324.2376 v 61.11955 h 10.79992 v -43.59968 l 31.51977,43.59968 h 11.35991" id="path5"/>
  <path style="fill:#4fb9db;fill-opacity:1;fill-rule:nonzero;stroke:none" d="M 71.919469,97.199276 36.559729,161.35881 0,97.199276 Z" id="path7"/>
  <path style="fill:#842796;fill-opacity:1;fill-rule:nonzero;stroke:none" d="M 115.91914,85.999366 74.799449,119.75912 80.479399,74.639446 Z" id="path9"/>
  <path style="fill:#006e97;fill-opacity:1;fill-rule:nonzero;stroke:none" d="M 56.63958,72.079466 22.399834,43.999674 27.119799,81.519396 Z" id="path11"/>
  <path style="fill:#f57521;fill-opacity:1;fill-rule:nonzero;stroke:none" d="M 78.959419,41.999688 120.07911,75.759436 114.39915,30.639773 Z" id="path13"/>
  <path style="fill:#fabd1f;fill-opacity:1;fill-rule:nonzero;stroke:none" d="M 138.23898,28.079792 172.47872,0 167.75876,37.519722 Z" id="path15"/>
</svg>